<svg xmlns:xlink="http://www.w3.org/1999/xlink" xmlns="http://www.w3.org/2000/svg" class="payment__image" width="411.4"  height="292.1" ><defs><symbol viewBox="0 0 411.4 292.1" id="amex" xmlns="http://www.w3.org/2000/svg"><path fill="#2D78BC" d="M49.7 103.8l-7.4-18.3-7.4 18.3m177.6-7.2c-1.5.9-3.2.9-5.3.9h-13.1V87.3h13.3c1.9 0 3.8.1 5.1.8 1.4.7 2.3 2.1 2.3 4.1-.1 2-.9 3.6-2.3 4.4m93.6 7.2l-7.5-18.3-7.4 18.3h14.9zm-174.5 19.8h-11.1V87.7l-15.7 35.9h-9.5L79.6 87.7v35.9h-22l-4.2-10.2H31.1l-4.2 10.2H15.1l19.3-45.8h16.1l18.4 43.4V77.8h17.6l14.1 31.1 13-31.1h18v45.8zm44.2 0h-36.1V77.8h36.1v9.5h-25.3v8.3h24.7v9.4h-24.7v9.1h25.3v9.5zm50.9-33.5c0 7.3-4.8 11.1-7.6 12.2 2.4.9 4.4 2.5 5.3 3.9 1.5 2.3 1.8 4.3 1.8 8.4v9h-10.9v-5.8c0-2.8.3-6.7-1.7-8.9-1.6-1.6-4-2-7.9-2h-11.6v16.7h-10.8V77.8h24.8c5.5 0 9.6.1 13.1 2.2 3.4 2 5.5 5 5.5 10.1m17.2 33.5h-11V77.8h11v45.8zm127.9 0h-15.3L336 89.2v34.4h-22l-4.2-10.2h-22.4l-4.1 10.2h-12.6c-5.2 0-11.9-1.2-15.7-5.1-3.8-3.9-5.8-9.2-5.8-17.5 0-6.8 1.2-13 5.8-17.9 3.5-3.7 9-5.3 16.4-5.3h10.5v9.8h-10.2c-3.9 0-6.2.6-8.3 2.7-1.8 1.9-3.1 5.6-3.1 10.4 0 4.9 1 8.4 3 10.8 1.7 1.8 4.7 2.4 7.5 2.4h4.8l15.2-36H307l18.3 43.3V77.9h16.5l19 31.9V77.9h11v45.7zm-356.8 9h18.5l4.2-10.2H47l4.2 10.2h36.3v-7.8l3.2 7.8h18.8l3.2-7.9v7.9h90.2v-16.7h1.7c1.2 0 1.6.2 1.6 2.2v14.5h46.7v-3.9c3.8 2 9.6 3.9 17.3 3.9h19.6l4.2-10.2h9.3l4.1 10.2h37.8v-9.7l5.7 9.7h30.3V68.7h-30v7.5l-4.2-7.5h-30.8v7.5l-3.9-7.5h-41.6c-7 0-13.1 1-18 3.7v-3.7H224v3.7c-3.1-2.8-7.4-3.7-12.2-3.7H107.2l-7 16.5L93 68.7H60v7.5l-3.6-7.5H28.1L15 99.1 0 132.6h15z"></path><path fill="#FFFFFF" d="M49.7 107.6l-7.4-18.3-7.4 18.3m177.6-7.3c-1.5.9-3.2.9-5.3.9h-13.1V91.1h13.3c1.9 0 3.8.1 5.1.8 1.4.7 2.3 2.1 2.3 4.1-.1 2-.9 3.6-2.3 4.3m93.6 7.3l-7.5-18.3-7.4 18.3h14.9zm-174.5 19.8h-11.1V91.5l-15.7 35.9h-9.5L79.6 91.5v35.9h-22l-4-10.3H31.1l-4.2 10.2H15.1l19.3-45.8h16.1l18.4 43.4V81.5h17.6l14.1 31.1 13-31.1h18v45.9zm44.2 0h-36.1V81.6h36.1v9.5h-25.3v8.3h24.7v9.4h-24.7v9.1h25.3v9.5zm50.9-33.5c0 7.3-4.8 11.1-7.6 12.2 2.4.9 4.4 2.5 5.3 3.9 1.5 2.3 1.8 4.3 1.8 8.4v9h-10.9v-5.8c0-2.8.3-6.7-1.7-8.9-1.6-1.6-4-2-7.9-2h-11.6v16.7h-10.8V81.6h24.8c5.5 0 9.6.1 13.1 2.2 3.4 2 5.5 5 5.5 10.1m17.2 33.5h-11V81.6h11v45.8zm127.9 0h-15.3L336 93v34.4h-22l-4.2-10.3h-22.4l-4.1 10.2h-12.6c-5.2 0-11.9-1.2-15.7-5.1-3.8-3.9-5.8-9.2-5.8-17.5 0-6.8 1.2-13 5.8-17.9 3.5-3.7 9-5.3 16.4-5.3h10.5v9.8h-10.2c-3.9 0-6.2.6-8.3 2.7-1.8 1.9-3.1 5.6-3.1 10.4 0 4.9 1 8.4 3 10.8 1.7 1.8 4.7 2.4 7.5 2.4h4.8l15.2-36H307l18.3 43.3V81.6h16.5l19 31.9V81.6h11v45.8zm-356.8 9h18.5l4.2-10.2H47l4.2 10.2h36.3v-7.8l3.2 7.8h18.8l3.2-7.9v7.9h90.2v-16.7h1.7c1.2 0 1.6.2 1.6 2.2v14.5h46.7v-3.9c3.8 2 9.6 3.9 17.3 3.9h19.6l4.2-10.2h9.3l4.1 10.2h37.8v-9.7l5.7 9.7h30.3V72.5h-30V80l-4.2-7.5h-30.8V80l-3.9-7.5h-41.6c-7 0-13.1 1-18 3.7v-3.7H224v3.7c-3.1-2.8-7.4-3.7-12.2-3.7H107.2l-7 16.5L93 72.5H60V80l-3.6-7.5H28.1L15 102.9 0 136.4h15z"></path><path fill="#2D78BC" d="M405.7 175.8v-29.3h-27.1c-6 0-10.4 1.5-13.5 3.7v-3.7h-29.6c-4.7 0-10.3 1.2-12.9 3.7v-3.7h-52.8v3.7c-4.2-3.1-11.3-3.7-14.6-3.7h-34.8v3.7c-3.3-3.3-10.7-3.7-15.2-3.7h-39l-8.9 9.8-8.4-9.8H90.6v63.9h57.2l9.2-9.9 8.7 9.9h35.2v-15h3.5c4.7.1 10.2-.1 15-2.2v17.2h29.1v-16.7h1.4c1.8 0 2 .1 2 1.9v14.8h88.3c5.6 0 11.5-1.5 14.7-4.1v4.1h28c5.8 0 11.5-.8 15.9-2.9v-.1c6.3-4.1 10.5-11.2 10.5-19.4-.2-4.5-1.4-8.7-3.6-12.2zM204.8 186h-13.5v15.4h-21L157 186.2l-13.8 15.2h-42.8v-45.8h43.4l13.3 15 13.7-15h34.5c8.6 0 18.2 2.4 18.2 15.1.1 12.7-9.3 15.3-18.7 15.3zm65-2c1.5 2.2 1.7 4.3 1.8 8.4v9.1h-10.8v-5.7c0-2.8.3-6.8-1.8-9-1.6-1.6-4-2-7.9-2h-11.6v16.7h-10.9v-45.8h25c5.5 0 9.5.2 13 2.2 3.4 2.1 5.6 4.9 5.6 10.2 0 7.3-4.8 11-7.7 12.2 2.4.7 4.4 2.3 5.3 3.7zm44.4-18.9h-25.3v8.3h24.7v9.3h-24.7v9.1h25.3v9.5h-36.1v-45.8h36.1v9.6zm27.5 36.3h-21v-9.8h21c2 0 3.5-.3 4.4-1.1.7-.7 1.3-1.7 1.3-3s-.6-2.4-1.3-3c-.8-.7-2-1-3.8-1-10.1-.3-22.8.3-22.8-14.2 0-6.6 4.1-13.6 15.5-13.6h21.7v9.7h-19.8c-2 0-3.2.1-4.3.8-1.2.7-1.6 1.8-1.6 3.3 0 1.7 1 2.9 2.4 3.4 1.1.4 2.4.5 4.2.5l5.8.2c5.9.1 9.9 1.2 12.3 3.7 2.1 2.2 3.2 5 3.2 9.7-.2 9.8-6.3 14.4-17.2 14.4zm55.7-4.4c-2.8 2.9-7.4 4.4-13.4 4.4h-20.9v-9.8h20.7c2.1 0 3.5-.3 4.4-1.1.8-.7 1.3-1.7 1.3-3s-.5-2.4-1.3-3c-.8-.7-1.9-1-3.8-1-10.1-.3-22.8.3-22.8-14.2 0-6.6 4.2-13.6 15.5-13.6h21.1v9.7h-19.3c-2 0-3.3.1-4.4.8-1.1.7-1.6 1.8-1.6 3.3 0 1.7 1 2.9 2.4 3.4 1.1.4 2.4.5 4.2.5l5.9.2c5.9.1 9.9 1.2 12.3 3.7.4.3.7.7 1 1.1-.1-.2-.2-.3-.4-.5 1.9 2.5 3 5.6 3 9-.1 3.9-1.5 7.4-3.9 10.1zm-259.2-31.9l11.8 13.3-12.3 13.4h-26.6v-9.1h23.7v-9.3h-23.7v-8.3h27.1zm25.7 13.5l16.6-18.1v36.7l-16.6-18.6zm48.1-7.9c0 4-2.6 6-6.7 6h-14v-11.6h14.1c3.9 0 6.6 1.6 6.6 5.6zm48.2-.7c0 2-.8 3.5-2.2 4.4s-3.2.9-5.3.9h-13.1v-10.2h13.2c1.9 0 3.9 0 5.2.8 1.4.7 2.2 2.2 2.2 4.1z"></path><path fill="#FFFFFF" d="M405.7 179.6v-29.3h-27.1c-6 0-10.4 1.5-13.5 3.7v-3.7h-29.6c-4.7 0-10.3 1.2-12.9 3.7v-3.7h-52.8v3.7c-4.2-3.1-11.3-3.7-14.6-3.7h-34.8v3.7c-3.3-3.3-10.7-3.7-15.2-3.7h-39l-8.9 9.8-8.4-9.8H90.6v63.8h57.2l9.2-9.9 8.7 9.9h35.2v-15h3.5c4.7.1 10.2-.1 15-2.2v17.2h29.1v-16.7h1.4c1.8 0 2 .1 2 1.9v14.8h88.3c5.6 0 11.5-1.5 14.7-4.1v4.1h28c5.8 0 11.5-.8 15.9-2.9v-.1c6.3-4.1 10.5-11.2 10.5-19.4-.2-4.4-1.4-8.6-3.6-12.1zm-200.9 10.2h-13.5v15.3h-21L157 189.9l-13.9 15.2h-42.8v-45.8h43.5l13.3 15 13.7-15h34.5c8.6 0 18.2 2.4 18.2 15.1.1 12.7-9.3 15.4-18.7 15.4zm65-2.1c1.5 2.2 1.7 4.3 1.8 8.4v9.1h-10.8v-5.7c0-2.8.3-6.8-1.8-9-1.6-1.6-4-2-7.9-2h-11.6v16.6h-10.9v-45.8h25c5.5 0 9.5.2 13 2.2 3.4 2.1 5.6 4.9 5.6 10.2 0 7.3-4.8 11-7.7 12.2 2.4.9 4.4 2.5 5.3 3.8zm44.4-18.9h-25.3v8.3h24.7v9.3h-24.7v9.1h25.3v9.5h-36.1v-45.8h36.1v9.6zm27.5 36.3h-21v-9.8h21c2 0 3.5-.3 4.4-1.1.7-.7 1.3-1.7 1.3-3s-.6-2.4-1.3-3c-.8-.7-2-1-3.8-1-10.1-.3-22.8.3-22.8-14.2 0-6.6 4.1-13.6 15.5-13.6h21.7v9.7h-19.8c-2 0-3.2.1-4.3.8-1.2.7-1.6 1.8-1.6 3.3 0 1.7 1 2.9 2.4 3.4 1.1.4 2.4.5 4.2.5l5.8.2c5.9.1 9.9 1.2 12.3 3.7 2.1 2.2 3.2 5 3.2 9.7-.2 9.8-6.3 14.4-17.2 14.4zm55.7-4.4c-2.8 2.9-7.4 4.4-13.4 4.4h-20.9v-9.8h20.7c2.1 0 3.5-.3 4.4-1.1.8-.7 1.3-1.7 1.3-3s-.5-2.4-1.3-3c-.8-.7-1.9-1-3.8-1-10.1-.3-22.8.3-22.8-14.2 0-6.6 4.2-13.6 15.5-13.6h21.1v9.7h-19.3c-2 0-3.3.1-4.4.8-1.1.7-1.6 1.8-1.6 3.3 0 1.7 1 2.9 2.4 3.4 1.1.4 2.4.5 4.2.5l5.9.2c5.9.1 9.9 1.2 12.3 3.7.4.3.7.7 1 1.1-.1-.2-.2-.3-.4-.5 1.9 2.5 3 5.6 3 9-.1 3.9-1.5 7.5-3.9 10.1zm-259.2-31.9l11.8 13.3-12.3 13.4h-26.6v-9.1h23.7v-9.3h-23.7v-8.3h27.1zm25.7 13.5l16.6-18.1v36.7l-16.6-18.6zm48.1-7.9c0 4-2.6 6-6.7 6h-14v-11.7h14.1c3.9.1 6.6 1.7 6.6 5.7zm48.2-.6c0 2-.8 3.5-2.2 4.4s-3.2.9-5.3.9h-13.1v-10.3h13.2c1.9 0 3.9 0 5.2.8 1.4.8 2.2 2.2 2.2 4.2z"></path></symbol></defs>
<use xlink:href="#amex">
</use></svg>