<svg xmlns:xlink="http://www.w3.org/1999/xlink" xmlns="http://www.w3.org/2000/svg" class="payment__image" width="55"  height="35" ><defs><symbol viewBox="0 0 25 8" id="visa" xmlns="http://www.w3.org/2000/svg"><path d="M12.379.142l-1.671 7.737h-2.02l1.67-7.737h2.02zm8.499 4.996l1.063-2.906.612 2.906h-1.675zm2.253 2.74H25L23.37.143h-1.725a.92.92 0 00-.86.567l-3.03 7.17h2.12l.422-1.156h2.591l.243 1.156zM17.86 5.354c.01-2.043-2.85-2.155-2.83-3.067.006-.278.273-.573.857-.649.29-.037 1.087-.066 1.992.347l.354-1.64A5.468 5.468 0 0016.342 0c-1.996 0-3.402 1.052-3.413 2.558-.013 1.114 1.003 1.735 1.768 2.105.787.38 1.052.623 1.048.962-.005.52-.628.748-1.208.757-1.016.016-1.606-.271-2.076-.488l-.366 1.695c.472.215 1.343.401 2.247.411 2.122 0 3.51-1.039 3.517-2.647zM9.492.142L6.22 7.879H4.084l-1.61-6.175c-.099-.38-.184-.52-.481-.68C1.508.764.706.518 0 .366L.048.142h3.437c.438 0 .833.288.932.788l.85 4.478L7.37.142h2.122z" fill="#182E66" fill-rule="evenodd"></path></symbol></defs>
<use xlink:href="#visa">
</use></svg>