<svg xmlns:xlink="http://www.w3.org/1999/xlink" xmlns="http://www.w3.org/2000/svg" class="payment__image" width="1572.7"  height="953.4" ><defs><symbol viewBox="0 0 1572.7 953.4" id="qitaf" xmlns="http://www.w3.org/2000/svg"><path d="M1456.2 622.1l-11.3-11.1-574.1-.4c-315.8 0-578.4-1.1-583.3-2.1-10.9-2.5-12-14-1.5-19.3 5.1-2.5 194.6-3.5 585.7-3.5 542.6 0 578.7.4 591.6 6.4 11.3 5 14 8.2 14.7 18.9.8 8.2-.8 14.2-4.7 17.5-5.1 3.7-7.8 2.5-17.1-6.4zM218.4 606.4c-14.3-7.2-17.5-14.2-17.5-39.6 0-21.4-.8-24.3-6.6-22.5-3.5 1.4-16.4 3.3-28.3 4.7-17.1 1.4-25.6.4-39.6-5.4-27.5-11.1-32.2-20.4-32.2-63.5 0-41 4.3-50.3 29.5-63.9 16.7-8.9 51.3-8.9 81.2.4l21.3 6.8 1.9 77.5c1.9 73.9 2.3 77.5 10.9 85.7 4.7 5 8.5 11.1 8.5 14.2 0 3.3-3.9 6.4-8.5 7.8-11.4 2.4-11.4 2.4-20.6-2.2zm-30-88.5l12.4-7.2v-33.9c0-39.6-1.5-41-37.7-41-33.8.4-43.9 10.7-43.9 44.7 0 20.7 4.3 32.5 15.1 40 9.9 6.7 39.8 5.6 54.1-2.6zm321.3 31.4c-26-8.6-39.6-31.1-32.6-54.2 5.1-17.1 19-23.9 58.6-28.9 18.6-2.1 35.4-5.4 36.5-6.4 1.5-1.1 1.5-6 0-10.7-3.1-12.1-19.8-17.5-51.3-16.1-26.8 1.1-26.8 1.1-27.9-8.6-1.5-12.8 9.8-17.1 45-17.1 29.9 0 50.5 7.5 57.9 21.4 3.1 5.7 5.1 26 5.1 57.9 0 56.4.4 56-38.1 63.2-24.9 4.5-37.8 4.5-53.2-.5zm51.2-24.6c12-3.5 16.4-13.2 13.6-30.3-1.1-6.8-3.1-7.2-23.3-5.7-23 1.4-47.8 10-50.5 17.5-.8 2.5 2.3 7.2 7 10.7 14 11.3 33.8 14.2 53.2 7.8zm-265.6 21.8c-14.7-5.7-18.3-17.1-19.8-68.6-1.9-58.9-.4-67.1 12.8-67.1 14.3 0 17.5 11.4 17.5 62.1 0 42.1.4 43.9 9.8 51.4 12.4 10 12.4 17.9-.4 22.1-5.5 2.1-10.1 3.5-10.5 3.3-.6-.1-4.9-1.5-9.4-3.2zm91.9-2.9c-9.3-3.9-15.1-10-18.3-18.6-5.1-13.6-6.6-117-1.9-141 5.1-26.4 27.9-18.6 27.9 9.7 0 12.8.8 13.6 12.8 13.6 21.7 0 29.9 3.5 29.9 12.8 0 10-10.1 15.7-28.8 15.7h-14v82l10.5 3.9c5.8 1.8 15.1 3.3 20.6 2.5 12.4-1.1 19.4 2.9 19.4 11.4.3 14.8-33.6 19.4-58.1 8zm472.7 1.1c-30.3-9.7-45.4-30.7-45.4-63.5 0-21.4 6.6-32.5 17.9-30.3 6.2 1.1 7.4 4.7 8.5 24.3 1.9 44.9 12 50.7 94.4 51.1 56.7.7 58.2.4 67.6-8.2l9.8-8.9-24.9 1.1c-45.8 2.1-64.5-12.8-64.5-52.1 0-41.8 36.9-59.6 94-44.9l22.6 6v51.1c0 49.2-.4 51.1-10.1 61.8-5.5 6-16.4 12.5-24.1 14.6-21.8 5-127.9 4-145.8-2.1zm150.8-62.5c6.2-4.7 8.1-33.9 2.7-42.1-10.9-15.4-52.8-10.3-62.2 7.5-6.6 12.5-.4 31.7 12 37.5 10.5 4.9 39.3 3.1 47.5-2.9zm89.7 64.3c-16-4.7-28.8-17.1-33.4-31.7-1.9-7.2-3.9-44.7-3.9-83.2v-70.7h9.8c5.5 0 11.3 2.9 13.6 6.8 2.3 4.3 3.9 33.2 3.9 69.6 0 38.2 1.5 66.1 4.3 71.1 5.5 11.1 18.6 17.9 31.1 16.1l9.3-1.1 1.9-80.3 1.9-80.3 10.9-1.1 10.5-1.1v30.7c0 22.9 1.5 31.1 5.5 32.5 3.1 1.1 31.1-2.1 62.5-7.5 63.7-10.3 74.2-9.3 92.1 8.2 16.4 16.1 18.6 23.5 18.6 61v35.9l10.9 2.5c5.8 1.8 26.8 2.5 46.6 2.1 28.3-.4 38.1-1.8 43.9-6.8 11.7-9.7 9.3-11.1-15.5-9.3-27.2 1.8-49-3.9-57.1-15.4-9.8-13.6-11.3-44.7-3.1-60.7 12.8-25.3 57.1-33.6 101.4-18.9l12.8 4.3-.4 44.9c-.4 75.4-7.7 83.2-81.2 84.9-31.8 1.1-49.3 0-60.6-3.9-12-3.5-18.3-3.9-23.3-1.1-9.5 5.3-196.7 7.1-213 2.5zm203.5-30.4c17.5-17.1 14-67.8-5.1-77.1-10.1-5.4-58.2-2.1-103.7 6.4l-33 6.4-1.1 36.7-1.1 36.4h67.6c66.7.1 67.5.1 76.4-8.8zm137.8-31c8.9-3.5 9.8-5.7 9.8-26v-22.5l-17.1-3.9c-12.4-2.9-20.2-2.9-29.2 0-14.3 4.7-19.8 12.5-19.8 29.6 0 22 29.6 34.2 56.3 22.8zm-780.2 48.2c-1.1-7.5-2.3-32.1-2.3-55 0-33.9-1.1-42.1-5.8-43.9-7.4-2.5-7.4-13.2 0-22.1 3.1-3.5 5.8-11.4 5.8-17.5.4-36.1 17.5-51.7 56.3-51.7 26.4 0 34.5 3.3 32.2 12.8-.8 5.4-5.8 7.2-23.3 8.9-28.8 2.9-34.1 7.2-34.1 26.8 0 15.4.4 15.7 12.8 15.7 21.7 0 29.9 3.5 29.9 12.8 0 10-10.1 15.7-28.8 15.7h-14v48.6c0 26.4-1.9 51.4-3.9 55.4-2.3 3.5-8.1 6.8-13.2 6.8-7.4-.1-9.3-2.6-11.6-13.3zm-383-142.1c-5.8-6.4-3.9-16.1 5.1-21 13.2-7.8 28.3 9.7 18.3 21-6.3 6.8-17.2 6.8-23.4 0zm703.8-5c-3.1-1.8-4.7-7.5-3.9-13.2 1.1-8.9 2.7-10.3 12.8-10.3 9.3 0 12 1.8 12.8 8.2 2.4 13.9-9.6 22.4-21.7 15.3zm415.6 0c-3.1-1.8-4.7-7.5-3.9-13.2 1.1-8.9 2.7-10.3 12.8-10.3 9.3 0 12 1.8 12.8 8.2 2.4 13.9-9.7 22.4-21.7 15.3zm35.7.4c-13.6-8.6-5.8-27.2 10.5-25 6.2.7 9.8 3.5 10.5 9.3 2.4 13.5-10.1 22.8-21 15.7z" fill="#713183"></path></symbol></defs>
<use xlink:href="#qitaf">
</use></svg>