<svg xmlns:xlink="http://www.w3.org/1999/xlink" xmlns="http://www.w3.org/2000/svg" class="payment__image" width="100.5"  height="60" ><defs><symbol viewBox="0 0 100.5 60" id="pay-at-showroom" xmlns="http://www.w3.org/2000/svg"><path fill="#FFFFFF" d="M94.5 60H5.9C2.7 60 0 57.3 0 54.1V5.9C0 2.7 2.7 0 5.9 0h88.6c3.3 0 5.9 2.7 5.9 5.9V54c.1 3.3-2.6 6-5.9 6z"></path><g fill="#D4070E"><path d="M13.9 30.5h2.4v7.6s-5.9 1.3-8.9-4.6h2.8s1.3 1.9 3.7 2.1v-5.1z" fill="#D4070E"></path><path d="M8.1 24.5h3.2s4.1-3.4 8.1.7H7.5s-2.1 3.3-.5 7.6h2.6s-1.6-2.9-.5-5.1h14.3s-1-6.3-7.8-6.8c-.1 0-5.3-.4-7.5 3.6zm9 11V38s5.5-1 6.6-7.6h-2.4c-.1 0-.5 3.8-4.2 5.1z" fill="#D4070E"></path><circle cx="15" cy="29.1" r="1.3" fill="#D4070E"></circle></g><path d="M31.7 22c-.3 0-.5.1-.7.3-.2.2-.3.4-.3.8 0 .3.1.6.3.8.2.2.4.3.7.3.3 0 .5-.1.7-.3s.3-.4.3-.8c0-.3-.1-.6-.3-.8-.2-.2-.4-.3-.7-.3zm2.4 0c-.3 0-.5.1-.7.3-.2.2-.3.4-.3.8 0 .3.1.6.3.8.2.2.4.3.7.3.3 0 .5-.1.7-.3.2-.2.3-.4.3-.8 0-.3-.1-.6-.3-.8-.1-.2-.4-.3-.7-.3zm7.1-5h8.2V9.8h-2.6c-1.3 0-2.4.3-3.1 1s-1.1 1.5-1.1 2.6c0 .7.2 1.4.7 1.9h-2c-.3 0-.6-.1-.9-.3-.3-.2-.6-.6-1.1-1.2-.6-.8-1-1.3-1.2-1.6s-.5-.4-.8-.5c-.3-.1-.6-.2-.9-.2-.5 0-1.1.2-1.7.6-.6.4-1.1.9-1.4 1.4-.3.5-.5 1-.5 1.5 0 .6.2 1.1.5 1.4.3.3.9.6 1.7.8.4.1.6.2.8.3.2.1.2.3.2.4 0 .3-.1.5-.4.6-.3.1-.8.2-1.6.2h-2.5c-.3 0-.6-.1-.8-.3-.3-.2-.5-.4-.7-.7-.2-.3-.2-.6-.2-.9 0-.5 0-1 .1-1.4s.1-.7.2-1.1h-1.9c-.3.9-.5 1.9-.5 2.8 0 .6.1 1.2.4 1.7.2.5.6.9 1.1 1.2.5.3 1 .4 1.5.4H34c1.4 0 2.5-.2 3.1-.7s1-1.1 1-2c0-.4-.1-.7-.2-1-.1-.3-.4-.5-.7-.7-.3-.2-.8-.4-1.4-.6-.4-.1-.6-.3-.8-.4-.2-.1-.3-.3-.3-.5s.1-.3.2-.5.4-.4.6-.6c.2-.2.4-.2.6-.2.2 0 .5.1.7.3.3.2.6.6 1.1 1.3.4.5.6.9.7 1 .4.4.8.7 1.1.8.6.3 1.1.4 1.5.4zm4.2-5c.4-.3.9-.5 1.5-.5h.4v3.7h-.4c-.7 0-1.2-.2-1.5-.5-.3-.3-.5-.8-.5-1.3 0-.6.1-1 .5-1.4zm1.3-3.5c.3 0 .5-.1.7-.3s.3-.4.3-.8c0-.3-.1-.6-.3-.8-.2-.2-.4-.3-.7-.3-.3 0-.5.1-.7.3-.2.2-.3.4-.3.8 0 .3.1.6.3.8.2.2.4.3.7.3zm14.7 13.2c.4-.1.9-.2 1.5-.4l-.2-1.6c-.8.2-1.5.3-2.1.3-.5 0-.9-.1-1.2-.3s-.4-.5-.4-1c0-.4.1-.9.4-1.3s.7-.8 1.3-1.3c.4.3.9.5 1.4.6.5.1.9.2 1.3.2h1.7-.1 8.1V9.8h-2.6c-1.3 0-2.4.3-3.1 1s-1.1 1.5-1.1 2.6c0 .7.2 1.4.7 1.9h-3.6c-.5 0-.9-.1-1.3-.2.8-.6 1.4-1.4 1.8-2.2.4-.9.6-1.8.6-2.8-1.1-.6-2.3-.9-3.7-.9-.7 0-1.4.1-2.1.4-.7.3-1.4.6-2 1.1.1.8.4 1.6.8 2.4s1 1.5 1.6 2.1c-.8.6-1.4 1.2-1.8 1.8-.4.6-.6 1.2-.6 1.9 0 .9.3 1.6.9 2.1.6.5 1.4.8 2.4.8.5 0 1-.1 1.4-.1zM69 12c.4-.3.9-.5 1.5-.5h.5v3.7h-.4c-.7 0-1.2-.2-1.5-.5-.3-.3-.5-.8-.5-1.3-.1-.6.1-1 .4-1.4zm-10.2-.5c.2-.1.5-.3.8-.4.4-.1.7-.2 1-.2.3 0 .6 0 .9.1.3 0 .5.1.8.2 0 .6-.2 1.2-.6 1.7-.3.5-.7 1-1.2 1.4-.8-.9-1.4-1.8-1.7-2.8zm11.6-3c.3 0 .5-.1.7-.3.2-.2.3-.4.3-.8 0-.3-.1-.6-.3-.8s-.4-.3-.7-.3c-.3 0-.5.1-.7.3-.2.2-.3.4-.3.8 0 .3.1.6.3.8s.4.3.7.3zm15.3 6.8h-3.6c-.4-1.8-.9-3.2-1.7-4.3s-1.8-1.9-3.1-2.4l-.8 2c.6.3 1.2.6 1.6 1 .4.4.8.9 1.1 1.4.3.6.5 1.3.7 2.2H75V17h12.8V5.9h-2.2v9.4zm5.1-9.4H93V17h-2.2zm-37.5 20c.3 0 .5-.1.7-.3.2-.2.3-.4.3-.8 0-.3-.1-.6-.3-.8-.2-.2-.4-.3-.7-.3-.3 0-.6.1-.7.3-.2.2-.3.4-.3.8 0 .3.1.6.3.8s.4.3.7.3zm.6 1.1c-1.7 0-3.1.9-4 2.7v-2.6h-2.2v6.7c0 .7-.2 1.3-.5 1.7s-.9.6-1.7.6h-.4c-.6 0-1.1-.2-1.4-.6-.4-.4-.5-1-.5-1.7 0-.5 0-1 .1-1.6.1-.6.2-1.1.4-1.6h-1.9c-.2.5-.4 1-.5 1.5-.1.6-.2 1.1-.2 1.7 0 .8.2 1.5.5 2.1.3.6.8 1.1 1.4 1.4.6.3 1.3.5 2.1.5h.6c1.3 0 2.4-.3 3.1-.9s1.1-1.5 1.2-2.6h7.6v-3.5c0-1.3-.3-2.3-.9-2.9-.7-.6-1.6-.9-2.8-.9zm1.4 5.6h-5.4v-1.1c1-1.8 2.1-2.7 3.4-2.7.7 0 1.2.2 1.5.5.3.3.5.9.5 1.6v1.7zm30.4 0h-1.8c-.3 0-.6 0-.9-.1-.2-.1-.4-.2-.6-.4.2-.5.3-1 .3-1.5 0-.7-.2-1.3-.4-1.8-.3-.5-.7-.9-1.3-1.2-.5-.3-1.1-.4-1.8-.4-.4 0-.9.1-1.4.2-.5.1-1 .3-1.5.6-.2.4-.4.8-.5 1.3-.1.5-.2.9-.2 1.4 0 .7.1 1.4.4 2h-3.1c-.5 0-1-.1-1.3-.3.7-.5 1.3-1.1 1.7-2s.6-1.8.6-2.9c-1-.6-2.3-.9-3.7-.9-.7 0-1.4.1-2.1.4-.7.3-1.4.6-2 1.1.1.5.2 1.1.5 1.6s.5 1.1.8 1.6c.3.5.6.8.9 1.1-.2.1-.4.1-.6.2-.3.1-.5.1-.7.1h-3.2v-5.5h-2.2v7.4c0 .5-.1.8-.4 1.1-.2.3-.6.4-.9.4-.3 0-.5 0-.7-.1-.2-.1-.4-.2-.7-.3l-.9 1.4c.5.3.9.5 1.3.6s.9.2 1.4.2c.9 0 1.7-.3 2.2-.9.6-.6.8-1.4.8-2.4v-.2h3.4c.9 0 1.8-.3 2.7-.8.4.2.8.4 1.3.6s1 .2 1.4.2h6.1c.5 0 1-.1 1.5-.2.5-.2.9-.4 1.3-.7.3.4.7.6 1.1.8.4.1.8.2 1.3.2h4V23.3h-2.2v9.3zm-15.8-1.1c-.4-.3-.7-.6-1-1.1-.3-.5-.5-1-.7-1.5.2-.2.5-.3.9-.4s.7-.2 1-.2c.7 0 1.2.1 1.6.3 0 1.2-.6 2.2-1.8 2.9zM80 32c-.4.4-.9.6-1.5.6H78c-.2-.6-.3-1.2-.3-1.7 0-.6.1-1.1.2-1.6.5-.3.9-.4 1.4-.4.4 0 .8.2 1 .5.3.3.4.7.4 1.2-.1.6-.3 1.1-.7 1.4zm10.8-8.7H93v11.1h-2.2zM13.1 48.5h-2v6.8h1.5v-2.4h.5c.6 0 1.1-.1 1.4-.3.4-.2.6-.5.8-.8.2-.3.3-.7.3-1.2 0-.7-.2-1.2-.6-1.6-.4-.3-1-.5-1.9-.5zm.7 3c-.2.2-.5.3-.9.3h-.3v-2.1h.4c.7 0 1 .3 1 1 .1.3 0 .6-.2.8zm3.9-3l-2.1 6.8h1.6l.4-1.6h2l.4 1.6h1.6l-2.1-6.8h-1.8zm.2 4l.7-3 .7 3h-1.4zm6.1-1.2l-1.1-2.8h-1.6l2 4.2v2.6h1.5v-2.6l2-4.2h-1.6zm10.9-2.4c-.5-.3-1.1-.4-1.8-.4-.8 0-1.4.2-2 .5-.6.3-1 .8-1.3 1.4s-.5 1.3-.5 2.1c0 1.1.3 2 .9 2.6.6.6 1.5.9 2.7.9.4 0 .7 0 1.1-.1.3-.1.7-.2 1-.3v-.9c-.3.1-.7.2-1 .3-.4.1-.7.1-1 .1-.9 0-1.5-.2-1.9-.8-.4-.5-.6-1.2-.6-2 0-.6.1-1.1.3-1.6.2-.5.5-.9.9-1.2s.9-.4 1.5-.4c.5 0 .9.1 1.3.3.4.2.6.5.8.9s.3.8.3 1.4c0 1.1-.2 1.6-.6 1.6-.1 0-.2 0-.3-.1s-.1-.2-.1-.4v-.5l.1-2c-.2-.1-.4-.1-.7-.2-.3 0-.5-.1-.8-.1-.6 0-1.1.2-1.5.6-.4.4-.5.9-.5 1.6 0 .6.1 1 .4 1.3.3.3.7.5 1.1.5.3 0 .5-.1.7-.2s.3-.3.5-.5h.1c.1.2.2.4.4.5.2.1.4.2.7.2.3 0 .6-.1.9-.3.2-.2.4-.5.6-.9.1-.4.2-.8.2-1.2 0-.7-.1-1.3-.4-1.8-.6-.3-1-.7-1.5-.9zM33.5 52c0 .5-.1.9-.2 1.1-.1.2-.3.3-.5.3s-.3-.1-.4-.2c-.1-.2-.2-.4-.2-.8s.1-.8.2-1 .4-.4.7-.4h.4v1zm8.7-.6c-.3-.1-.5-.3-.7-.4-.2-.1-.3-.2-.4-.3-.1-.1-.1-.3-.1-.4 0-.2.1-.4.2-.5.1-.1.3-.2.6-.2.2 0 .4 0 .7.1.2.1.5.2.8.3l.4-1.2-.9-.3c-.3-.1-.6-.1-1-.1-.7 0-1.3.2-1.7.5-.4.4-.6.8-.6 1.4 0 .4.1.7.2.9.1.2.3.5.6.6.2.2.5.3.8.5.4.2.7.4.9.6.2.2.3.3.3.6 0 .2-.1.4-.2.5-.1.1-.4.2-.7.2-.3 0-.6 0-.9-.1s-.6-.2-.9-.4V55l.9.3c.3.1.6.1 1 .1.5 0 .9-.1 1.3-.3.4-.2.6-.4.8-.7.2-.3.3-.7.3-1.1 0-.5-.1-.9-.4-1.2-.4-.2-.8-.5-1.3-.7zm6.3-.2h-2.2v-2.7h-1.5v6.8h1.5v-3h2.2v3H50v-6.8h-1.5zm7.3-2.4c-.4-.3-1-.4-1.6-.4-1 0-1.7.3-2.2.9-.5.6-.7 1.5-.7 2.6 0 .7.1 1.3.3 1.9.2.5.5.9 1 1.2s1 .4 1.6.4 1.2-.1 1.6-.4c.4-.3.8-.7 1-1.2.2-.5.3-1.2.3-1.9s-.1-1.3-.3-1.9c-.3-.5-.6-.9-1-1.2zm-.6 4.8c-.2.4-.6.6-1 .6-.5 0-.8-.2-1-.6s-.3-1-.3-1.7.1-1.3.3-1.7c.2-.4.6-.6 1.1-.6s.8.2 1 .6c.2.4.3 1 .3 1.8s-.2 1.3-.4 1.6zM64 52c-.1.3-.1.6-.2.9-.1.3-.1.6-.1.9 0-.2-.1-.4-.1-.6s-.1-.4-.1-.7c0-.2-.1-.4-.1-.5l-.8-3.6h-1.3l-.9 3.6c0 .1-.1.3-.1.5s-.1.4-.1.6c0 .2-.1.4-.1.6 0-.2 0-.4-.1-.6 0-.2-.1-.4-.1-.7 0-.2-.1-.4-.1-.6l-.8-3.3h-1.4l1.6 6.8h1.7l.8-3.4c0-.1.1-.3.1-.5s.1-.4.1-.6c0-.2.1-.4.1-.5 0 .3.1.6.1.9.1.3.1.6.1.8l.8 3.3h1.7l1.6-6.8h-1.5L64 52zm7.2-.4c.2-.3.3-.7.3-1.1 0-.7-.2-1.2-.6-1.5-.4-.3-1.1-.5-2-.5H67v6.8h1.5v-2.7h.5l1.4 2.7H72l-1.7-3c.4-.2.7-.4.9-.7zm-2.3 0h-.4v-2h.3c.4 0 .7.1.9.2.2.2.3.4.3.7 0 .7-.4 1.1-1.1 1.1zm8.3-2.8c-.4-.3-1-.4-1.6-.4-1 0-1.7.3-2.2.9-.5.6-.7 1.5-.7 2.6 0 .7.1 1.3.3 1.9.2.5.5.9 1 1.2.4.3 1 .4 1.6.4.7 0 1.2-.1 1.6-.4.4-.3.8-.7 1-1.2.2-.5.3-1.2.3-1.9s-.1-1.3-.3-1.9c-.3-.5-.6-.9-1-1.2zm-.6 4.8c-.2.4-.6.6-1 .6-.5 0-.8-.2-1-.6-.2-.4-.3-1-.3-1.7s.1-1.3.3-1.7c.2-.4.6-.6 1.1-.6.5 0 .8.2 1 .6.2.4.3 1 .3 1.8s-.2 1.3-.4 1.6zm7.4-4.8c-.4-.3-1-.4-1.6-.4-1 0-1.7.3-2.2.9-.5.6-.7 1.5-.7 2.6 0 .7.1 1.3.3 1.9.2.5.5.9 1 1.2.4.3 1 .4 1.6.4.7 0 1.2-.1 1.6-.4.4-.3.8-.7 1-1.2.2-.5.3-1.2.3-1.9s-.1-1.3-.3-1.9c-.2-.5-.6-.9-1-1.2zm-.6 4.8c-.2.4-.6.6-1 .6-.5 0-.8-.2-1-.6-.2-.4-.3-1-.3-1.7s.1-1.3.3-1.7c.2-.4.6-.6 1.1-.6.5 0 .8.2 1 .6.2.4.3 1 .3 1.8s-.2 1.3-.4 1.6zm8.2-5.1l-1.5 4.8-1.5-4.8h-2v6.8H88v-4.2c0-.3 0-.6-.1-.9l1.6 5.1h1.2l1.6-5.1v5.1h1.4v-6.8h-2.1z" fill="#D4070E"></path></symbol></defs>
<use xlink:href="#pay-at-showroom">
</use></svg>